<svg viewBox="0 0 240 240" xmlns="http://www.w3.org/2000/svg">
<line stroke="black" stroke-width="0.5" x1="20" x2="20" y1="20" y2="20"/>
<line stroke="black" stroke-width="0.5" x1="40" x2="20" y1="20" y2="20"/>
<line stroke="black" stroke-width="0.5" x1="60" x2="40" y1="20" y2="20"/>
<line stroke="black" stroke-width="0.5" x1="80" x2="60" y1="20" y2="20"/>
<line stroke="black" stroke-width="0.5" x1="100" x2="80" y1="20" y2="20"/>
<line stroke="black" stroke-width="0.5" x1="120" x2="120" y1="20" y2="40"/>
<line stroke="black" stroke-width="0.5" x1="140" x2="120" y1="20" y2="20"/>
<line stroke="black" stroke-width="0.5" x1="160" x2="140" y1="20" y2="20"/>
<line stroke="black" stroke-width="0.5" x1="180" x2="200" y1="20" y2="20"/>
<line stroke="black" stroke-width="0.5" x1="200" x2="200" y1="20" y2="40"/>
<line stroke="black" stroke-width="0.5" x1="219" x2="200" y1="20" y2="20"/>
<line stroke="black" stroke-width="0.5" x1="20" x2="20" y1="40" y2="20"/>
<line stroke="black" stroke-width="0.5" x1="40" x2="40" y1="40" y2="20"/>
<line stroke="black" stroke-width="0.5" x1="60" x2="80" y1="40" y2="40"/>
<line stroke="black" stroke-width="0.5" x1="80" x2="80" y1="40" y2="20"/>
<line stroke="black" stroke-width="0.5" x1="100" x2="120" y1="40" y2="40"/>
<line stroke="black" stroke-width="0.5" x1="120" x2="120" y1="40" y2="60"/>
<line stroke="black" stroke-width="0.5" x1="140" x2="120" y1="40" y2="40"/>
<line stroke="black" stroke-width="0.5" x1="160" x2="140" y1="40" y2="40"/>
<line stroke="black" stroke-width="0.5" x1="180" x2="200" y1="40" y2="40"/>
<line stroke="black" stroke-width="0.5" x1="200" x2="200" y1="40" y2="60"/>
<line stroke="black" stroke-width="0.5" x1="219" x2="200" y1="40" y2="40"/>
<line stroke="black" stroke-width="0.5" x1="20" x2="20" y1="60" y2="40"/>
<line stroke="black" stroke-width="0.5" x1="40" x2="40" y1="60" y2="80"/>
<line stroke="black" stroke-width="0.5" x1="60" x2="80" y1="60" y2="60"/>
<line stroke="black" stroke-width="0.5" x1="80" x2="80" y1="60" y2="40"/>
<line stroke="black" stroke-width="0.5" x1="100" x2="120" y1="60" y2="60"/>
<line stroke="black" stroke-width="0.5" x1="120" x2="120" y1="60" y2="80"/>
<line stroke="black" stroke-width="0.5" x1="140" x2="120" y1="60" y2="60"/>
<line stroke="black" stroke-width="0.5" x1="160" x2="140" y1="60" y2="60"/>
<line stroke="black" stroke-width="0.5" x1="180" x2="200" y1="60" y2="60"/>
<line stroke="black" stroke-width="0.5" x1="200" x2="200" y1="60" y2="80"/>
<line stroke="black" stroke-width="0.5" x1="219" x2="200" y1="60" y2="60"/>
<line stroke="black" stroke-width="0.5" x1="20" x2="40" y1="80" y2="80"/>
<line stroke="black" stroke-width="0.5" x1="40" x2="60" y1="80" y2="80"/>
<line stroke="black" stroke-width="0.5" x1="60" x2="80" y1="80" y2="80"/>
<line stroke="black" stroke-width="0.5" x1="80" x2="80" y1="80" y2="60"/>
<line stroke="black" stroke-width="0.5" x1="100" x2="80" y1="80" y2="80"/>
<line stroke="black" stroke-width="0.5" x1="120" x2="120" y1="80" y2="100"/>
<line stroke="black" stroke-width="0.5" x1="140" x2="120" y1="80" y2="80"/>
<line stroke="black" stroke-width="0.5" x1="160" x2="160" y1="80" y2="100"/>
<line stroke="black" stroke-width="0.5" x1="180" x2="160" y1="80" y2="80"/>
<line stroke="black" stroke-width="0.5" x1="200" x2="180" y1="80" y2="80"/>
<line stroke="black" stroke-width="0.5" x1="219" x2="200" y1="80" y2="80"/>
<line stroke="black" stroke-width="0.5" x1="20" x2="20" y1="100" y2="80"/>
<line stroke="black" stroke-width="0.5" x1="40" x2="20" y1="100" y2="100"/>
<line stroke="black" stroke-width="0.5" x1="60" x2="80" y1="100" y2="100"/>
<line stroke="black" stroke-width="0.5" x1="80" x2="80" y1="100" y2="80"/>
<line stroke="black" stroke-width="0.5" x1="100" x2="80" y1="100" y2="100"/>
<line stroke="black" stroke-width="0.5" x1="120" x2="100" y1="100" y2="100"/>
<line stroke="black" stroke-width="0.5" x1="140" x2="120" y1="100" y2="100"/>
<line stroke="black" stroke-width="0.5" x1="160" x2="140" y1="100" y2="100"/>
<line stroke="black" stroke-width="0.5" x1="180" x2="160" y1="100" y2="100"/>
<line stroke="black" stroke-width="0.5" x1="200" x2="200" y1="100" y2="80"/>
<line stroke="black" stroke-width="0.5" x1="219" x2="219" y1="100" y2="120"/>
<line stroke="black" stroke-width="0.5" x1="20" x2="20" y1="120" y2="100"/>
<line stroke="black" stroke-width="0.5" x1="40" x2="20" y1="120" y2="120"/>
<line stroke="black" stroke-width="0.5" x1="60" x2="80" y1="120" y2="120"/>
<line stroke="black" stroke-width="0.5" x1="80" x2="80" y1="120" y2="100"/>
<line stroke="black" stroke-width="0.5" x1="100" x2="80" y1="120" y2="120"/>
<line stroke="black" stroke-width="0.5" x1="120" x2="120" y1="120" y2="100"/>
<line stroke="black" stroke-width="0.5" x1="140" x2="160" y1="120" y2="120"/>
<line stroke="black" stroke-width="0.5" x1="160" x2="160" y1="120" y2="100"/>
<line stroke="black" stroke-width="0.5" x1="180" x2="160" y1="120" y2="120"/>
<line stroke="black" stroke-width="0.5" x1="200" x2="180" y1="120" y2="120"/>
<line stroke="black" stroke-width="0.5" x1="219" x2="200" y1="120" y2="120"/>
<line stroke="black" stroke-width="0.5" x1="20" x2="20" y1="140" y2="120"/>
<line stroke="black" stroke-width="0.5" x1="40" x2="60" y1="140" y2="140"/>
<line stroke="black" stroke-width="0.5" x1="60" x2="60" y1="140" y2="120"/>
<line stroke="black" stroke-width="0.5" x1="80" x2="80" y1="140" y2="120"/>
<line stroke="black" stroke-width="0.5" x1="100" x2="100" y1="140" y2="120"/>
<line stroke="black" stroke-width="0.5" x1="120" x2="140" y1="140" y2="140"/>
<line stroke="black" stroke-width="0.5" x1="140" x2="140" y1="140" y2="120"/>
<line stroke="black" stroke-width="0.5" x1="160" x2="140" y1="140" y2="140"/>
<line stroke="black" stroke-width="0.5" x1="180" x2="180" y1="140" y2="120"/>
<line stroke="black" stroke-width="0.5" x1="200" x2="200" y1="140" y2="120"/>
<line stroke="black" stroke-width="0.5" x1="219" x2="219" y1="140" y2="160"/>
<line stroke="black" stroke-width="0.5" x1="20" x2="40" y1="160" y2="160"/>
<line stroke="black" stroke-width="0.5" x1="40" x2="60" y1="160" y2="160"/>
<line stroke="black" stroke-width="0.5" x1="60" x2="60" y1="160" y2="140"/>
<line stroke="black" stroke-width="0.5" x1="80" x2="60" y1="160" y2="160"/>
<line stroke="black" stroke-width="0.5" x1="100" x2="100" y1="160" y2="180"/>
<line stroke="black" stroke-width="0.5" x1="120" x2="100" y1="160" y2="160"/>
<line stroke="black" stroke-width="0.5" x1="140" x2="140" y1="160" y2="140"/>
<line stroke="black" stroke-width="0.5" x1="160" x2="160" y1="160" y2="180"/>
<line stroke="black" stroke-width="0.5" x1="180" x2="200" y1="160" y2="160"/>
<line stroke="black" stroke-width="0.5" x1="200" x2="200" y1="160" y2="140"/>
<line stroke="black" stroke-width="0.5" x1="219" x2="200" y1="160" y2="160"/>
<line stroke="black" stroke-width="0.5" x1="20" x2="40" y1="180" y2="180"/>
<line stroke="black" stroke-width="0.5" x1="40" x2="60" y1="180" y2="180"/>
<line stroke="black" stroke-width="0.5" x1="60" x2="60" y1="180" y2="160"/>
<line stroke="black" stroke-width="0.5" x1="80" x2="60" y1="180" y2="180"/>
<line stroke="black" stroke-width="0.5" x1="100" x2="80" y1="180" y2="180"/>
<line stroke="black" stroke-width="0.5" x1="120" x2="100" y1="180" y2="180"/>
<line stroke="black" stroke-width="0.5" x1="140" x2="160" y1="180" y2="180"/>
<line stroke="black" stroke-width="0.5" x1="160" x2="160" y1="180" y2="200"/>
<line stroke="black" stroke-width="0.5" x1="180" x2="160" y1="180" y2="180"/>
<line stroke="black" stroke-width="0.5" x1="200" x2="219" y1="180" y2="180"/>
<line stroke="black" stroke-width="0.5" x1="219" x2="219" y1="180" y2="160"/>
<line stroke="black" stroke-width="0.5" x1="20" x2="20" y1="200" y2="180"/>
<line stroke="black" stroke-width="0.5" x1="40" x2="40" y1="200" y2="180"/>
<line stroke="black" stroke-width="0.5" x1="60" x2="60" y1="200" y2="180"/>
<line stroke="black" stroke-width="0.5" x1="80" x2="80" y1="200" y2="180"/>
<line stroke="black" stroke-width="0.5" x1="100" x2="100" y1="200" y2="180"/>
<line stroke="black" stroke-width="0.5" x1="120" x2="120" y1="200" y2="180"/>
<line stroke="black" stroke-width="0.5" x1="140" x2="160" y1="200" y2="200"/>
<line stroke="black" stroke-width="0.5" x1="160" x2="180" y1="200" y2="200"/>
<line stroke="black" stroke-width="0.5" x1="180" x2="200" y1="200" y2="200"/>
<line stroke="black" stroke-width="0.5" x1="200" x2="200" y1="200" y2="180"/>
<line stroke="black" stroke-width="0.5" x1="219" x2="200" y1="200" y2="200"/>
<line stroke="black" stroke-width="0.5" x1="20" x2="40" y1="219" y2="219"/>
<line stroke="black" stroke-width="0.5" x1="40" x2="40" y1="219" y2="200"/>
<line stroke="black" stroke-width="0.5" x1="60" x2="40" y1="219" y2="219"/>
<line stroke="black" stroke-width="0.5" x1="80" x2="60" y1="219" y2="219"/>
<line stroke="black" stroke-width="0.5" x1="100" x2="100" y1="219" y2="200"/>
<line stroke="black" stroke-width="0.5" x1="120" x2="120" y1="219" y2="200"/>
<line stroke="black" stroke-width="0.5" x1="140" x2="140" y1="219" y2="200"/>
<line stroke="black" stroke-width="0.5" x1="160" x2="160" y1="219" y2="200"/>
<line stroke="black" stroke-width="0.5" x1="180" x2="200" y1="219" y2="219"/>
<line stroke="black" stroke-width="0.5" x1="200" x2="200" y1="219" y2="200"/>
<line stroke="black" stroke-width="0.5" x1="219" x2="200" y1="219" y2="219"/>
<text fill="black" font-size="4" font_family="sans" x="20" y="20">
50
</text>
<text fill="blue" font-size="2" font_family="sans" x="20" y="30">
275
</text>
<text fill="blue" font-size="2" font_family="sans" x="30" y="20">
275
</text>
<text fill="black" font-size="4" font_family="sans" x="40" y="20">
500
</text>
<text fill="blue" font-size="2" font_family="sans" x="40" y="30">
500
</text>
<text fill="blue" font-size="2" font_family="sans" x="50" y="20">
500
</text>
<text fill="black" font-size="4" font_family="sans" x="60" y="20">
500
</text>
<text fill="blue" font-size="2" font_family="sans" x="60" y="30">
500
</text>
<text fill="blue" font-size="2" font_family="sans" x="70" y="20">
500
</text>
<text fill="black" font-size="4" font_family="sans" x="80" y="20">
500
</text>
<text fill="blue" font-size="2" font_family="sans" x="80" y="30">
325
</text>
<text fill="blue" font-size="2" font_family="sans" x="90" y="20">
500
</text>
<text fill="black" font-size="4" font_family="sans" x="100" y="20">
500
</text>
<text fill="blue" font-size="2" font_family="sans" x="100" y="30">
500
</text>
<text fill="blue" font-size="2" font_family="sans" x="110" y="20">
500
</text>
<text fill="black" font-size="4" font_family="sans" x="120" y="20">
500
</text>
<text fill="blue" font-size="2" font_family="sans" x="120" y="30">
275
</text>
<text fill="blue" font-size="2" font_family="sans" x="130" y="20">
500
</text>
<text fill="black" font-size="4" font_family="sans" x="140" y="20">
500
</text>
<text fill="blue" font-size="2" font_family="sans" x="140" y="30">
500
</text>
<text fill="blue" font-size="2" font_family="sans" x="150" y="20">
500
</text>
<text fill="black" font-size="4" font_family="sans" x="160" y="20">
500
</text>
<text fill="blue" font-size="2" font_family="sans" x="160" y="30">
500
</text>
<text fill="blue" font-size="2" font_family="sans" x="170" y="20">
500
</text>
<text fill="black" font-size="4" font_family="sans" x="180" y="20">
500
</text>
<text fill="blue" font-size="2" font_family="sans" x="180" y="30">
500
</text>
<text fill="blue" font-size="2" font_family="sans" x="190" y="20">
500
</text>
<text fill="black" font-size="4" font_family="sans" x="200" y="20">
500
</text>
<text fill="blue" font-size="2" font_family="sans" x="200" y="30">
275
</text>
<text fill="blue" font-size="2" font_family="sans" x="209" y="20">
500
</text>
<text fill="black" font-size="4" font_family="sans" x="219" y="20">
500
</text>
<text fill="blue" font-size="2" font_family="sans" x="219" y="30">
500
</text>
<text fill="black" font-size="4" font_family="sans" x="20" y="40">
500
</text>
<text fill="blue" font-size="2" font_family="sans" x="20" y="50">
500
</text>
<text fill="blue" font-size="2" font_family="sans" x="30" y="40">
500
</text>
<text fill="black" font-size="4" font_family="sans" x="40" y="40">
500
</text>
<text fill="blue" font-size="2" font_family="sans" x="40" y="50">
500
</text>
<text fill="blue" font-size="2" font_family="sans" x="50" y="40">
500
</text>
<text fill="black" font-size="4" font_family="sans" x="60" y="40">
500
</text>
<text fill="blue" font-size="2" font_family="sans" x="60" y="50">
500
</text>
<text fill="blue" font-size="2" font_family="sans" x="70" y="40">
325
</text>
<text fill="black" font-size="4" font_family="sans" x="80" y="40">
150
</text>
<text fill="blue" font-size="2" font_family="sans" x="80" y="50">
175
</text>
<text fill="blue" font-size="2" font_family="sans" x="90" y="40">
325
</text>
<text fill="black" font-size="4" font_family="sans" x="100" y="40">
500
</text>
<text fill="blue" font-size="2" font_family="sans" x="100" y="50">
500
</text>
<text fill="blue" font-size="2" font_family="sans" x="110" y="40">
275
</text>
<text fill="black" font-size="4" font_family="sans" x="120" y="40">
50
</text>
<text fill="blue" font-size="2" font_family="sans" x="120" y="50">
50
</text>
<text fill="blue" font-size="2" font_family="sans" x="130" y="40">
275
</text>
<text fill="black" font-size="4" font_family="sans" x="140" y="40">
500
</text>
<text fill="blue" font-size="2" font_family="sans" x="140" y="50">
500
</text>
<text fill="blue" font-size="2" font_family="sans" x="150" y="40">
500
</text>
<text fill="black" font-size="4" font_family="sans" x="160" y="40">
500
</text>
<text fill="blue" font-size="2" font_family="sans" x="160" y="50">
500
</text>
<text fill="blue" font-size="2" font_family="sans" x="170" y="40">
500
</text>
<text fill="black" font-size="4" font_family="sans" x="180" y="40">
500
</text>
<text fill="blue" font-size="2" font_family="sans" x="180" y="50">
500
</text>
<text fill="blue" font-size="2" font_family="sans" x="190" y="40">
275
</text>
<text fill="black" font-size="4" font_family="sans" x="200" y="40">
50
</text>
<text fill="blue" font-size="2" font_family="sans" x="200" y="50">
75
</text>
<text fill="blue" font-size="2" font_family="sans" x="209" y="40">
275
</text>
<text fill="black" font-size="4" font_family="sans" x="219" y="40">
500
</text>
<text fill="blue" font-size="2" font_family="sans" x="219" y="50">
500
</text>
<text fill="black" font-size="4" font_family="sans" x="20" y="60">
500
</text>
<text fill="blue" font-size="2" font_family="sans" x="20" y="70">
500
</text>
<text fill="blue" font-size="2" font_family="sans" x="30" y="60">
500
</text>
<text fill="black" font-size="4" font_family="sans" x="40" y="60">
500
</text>
<text fill="blue" font-size="2" font_family="sans" x="40" y="70">
375
</text>
<text fill="blue" font-size="2" font_family="sans" x="50" y="60">
500
</text>
<text fill="black" font-size="4" font_family="sans" x="60" y="60">
500
</text>
<text fill="blue" font-size="2" font_family="sans" x="60" y="70">
500
</text>
<text fill="blue" font-size="2" font_family="sans" x="70" y="60">
350
</text>
<text fill="black" font-size="4" font_family="sans" x="80" y="60">
200
</text>
<text fill="blue" font-size="2" font_family="sans" x="80" y="70">
175
</text>
<text fill="blue" font-size="2" font_family="sans" x="90" y="60">
350
</text>
<text fill="black" font-size="4" font_family="sans" x="100" y="60">
500
</text>
<text fill="blue" font-size="2" font_family="sans" x="100" y="70">
300
</text>
<text fill="blue" font-size="2" font_family="sans" x="110" y="60">
275
</text>
<text fill="black" font-size="4" font_family="sans" x="120" y="60">
50
</text>
<text fill="blue" font-size="2" font_family="sans" x="120" y="70">
275
</text>
<text fill="blue" font-size="2" font_family="sans" x="130" y="60">
275
</text>
<text fill="black" font-size="4" font_family="sans" x="140" y="60">
500
</text>
<text fill="blue" font-size="2" font_family="sans" x="140" y="70">
500
</text>
<text fill="blue" font-size="2" font_family="sans" x="150" y="60">
500
</text>
<text fill="black" font-size="4" font_family="sans" x="160" y="60">
500
</text>
<text fill="blue" font-size="2" font_family="sans" x="160" y="70">
500
</text>
<text fill="blue" font-size="2" font_family="sans" x="170" y="60">
500
</text>
<text fill="black" font-size="4" font_family="sans" x="180" y="60">
500
</text>
<text fill="blue" font-size="2" font_family="sans" x="180" y="70">
325
</text>
<text fill="blue" font-size="2" font_family="sans" x="190" y="60">
300
</text>
<text fill="black" font-size="4" font_family="sans" x="200" y="60">
100
</text>
<text fill="blue" font-size="2" font_family="sans" x="200" y="70">
175
</text>
<text fill="blue" font-size="2" font_family="sans" x="209" y="60">
300
</text>
<text fill="black" font-size="4" font_family="sans" x="219" y="60">
500
</text>
<text fill="blue" font-size="2" font_family="sans" x="219" y="70">
500
</text>
<text fill="black" font-size="4" font_family="sans" x="20" y="80">
500
</text>
<text fill="blue" font-size="2" font_family="sans" x="20" y="90">
350
</text>
<text fill="blue" font-size="2" font_family="sans" x="30" y="80">
375
</text>
<text fill="black" font-size="4" font_family="sans" x="40" y="80">
250
</text>
<text fill="blue" font-size="2" font_family="sans" x="40" y="90">
375
</text>
<text fill="blue" font-size="2" font_family="sans" x="50" y="80">
375
</text>
<text fill="black" font-size="4" font_family="sans" x="60" y="80">
500
</text>
<text fill="blue" font-size="2" font_family="sans" x="60" y="90">
500
</text>
<text fill="blue" font-size="2" font_family="sans" x="70" y="80">
325
</text>
<text fill="black" font-size="4" font_family="sans" x="80" y="80">
150
</text>
<text fill="blue" font-size="2" font_family="sans" x="80" y="90">
100
</text>
<text fill="blue" font-size="2" font_family="sans" x="90" y="80">
125
</text>
<text fill="black" font-size="4" font_family="sans" x="100" y="80">
100
</text>
<text fill="blue" font-size="2" font_family="sans" x="100" y="90">
300
</text>
<text fill="blue" font-size="2" font_family="sans" x="110" y="80">
300
</text>
<text fill="black" font-size="4" font_family="sans" x="120" y="80">
500
</text>
<text fill="blue" font-size="2" font_family="sans" x="120" y="90">
275
</text>
<text fill="blue" font-size="2" font_family="sans" x="130" y="80">
500
</text>
<text fill="black" font-size="4" font_family="sans" x="140" y="80">
500
</text>
<text fill="blue" font-size="2" font_family="sans" x="140" y="90">
500
</text>
<text fill="blue" font-size="2" font_family="sans" x="150" y="80">
500
</text>
<text fill="black" font-size="4" font_family="sans" x="160" y="80">
500
</text>
<text fill="blue" font-size="2" font_family="sans" x="160" y="90">
275
</text>
<text fill="blue" font-size="2" font_family="sans" x="170" y="80">
325
</text>
<text fill="black" font-size="4" font_family="sans" x="180" y="80">
150
</text>
<text fill="blue" font-size="2" font_family="sans" x="180" y="90">
325
</text>
<text fill="blue" font-size="2" font_family="sans" x="190" y="80">
200
</text>
<text fill="black" font-size="4" font_family="sans" x="200" y="80">
250
</text>
<text fill="blue" font-size="2" font_family="sans" x="200" y="90">
375
</text>
<text fill="blue" font-size="2" font_family="sans" x="209" y="80">
375
</text>
<text fill="black" font-size="4" font_family="sans" x="219" y="80">
500
</text>
<text fill="blue" font-size="2" font_family="sans" x="219" y="90">
500
</text>
<text fill="black" font-size="4" font_family="sans" x="20" y="100">
200
</text>
<text fill="blue" font-size="2" font_family="sans" x="20" y="110">
150
</text>
<text fill="blue" font-size="2" font_family="sans" x="30" y="100">
350
</text>
<text fill="black" font-size="4" font_family="sans" x="40" y="100">
500
</text>
<text fill="blue" font-size="2" font_family="sans" x="40" y="110">
500
</text>
<text fill="blue" font-size="2" font_family="sans" x="50" y="100">
500
</text>
<text fill="black" font-size="4" font_family="sans" x="60" y="100">
500
</text>
<text fill="blue" font-size="2" font_family="sans" x="60" y="110">
500
</text>
<text fill="blue" font-size="2" font_family="sans" x="70" y="100">
275
</text>
<text fill="black" font-size="4" font_family="sans" x="80" y="100">
50
</text>
<text fill="blue" font-size="2" font_family="sans" x="80" y="110">
50
</text>
<text fill="blue" font-size="2" font_family="sans" x="90" y="100">
275
</text>
<text fill="black" font-size="4" font_family="sans" x="100" y="100">
500
</text>
<text fill="blue" font-size="2" font_family="sans" x="100" y="110">
325
</text>
<text fill="blue" font-size="2" font_family="sans" x="110" y="100">
275
</text>
<text fill="black" font-size="4" font_family="sans" x="120" y="100">
50
</text>
<text fill="blue" font-size="2" font_family="sans" x="120" y="110">
275
</text>
<text fill="blue" font-size="2" font_family="sans" x="130" y="100">
275
</text>
<text fill="black" font-size="4" font_family="sans" x="140" y="100">
500
</text>
<text fill="blue" font-size="2" font_family="sans" x="140" y="110">
500
</text>
<text fill="blue" font-size="2" font_family="sans" x="150" y="100">
275
</text>
<text fill="black" font-size="4" font_family="sans" x="160" y="100">
50
</text>
<text fill="blue" font-size="2" font_family="sans" x="160" y="110">
150
</text>
<text fill="blue" font-size="2" font_family="sans" x="170" y="100">
275
</text>
<text fill="black" font-size="4" font_family="sans" x="180" y="100">
500
</text>
<text fill="blue" font-size="2" font_family="sans" x="180" y="110">
300
</text>
<text fill="blue" font-size="2" font_family="sans" x="190" y="100">
500
</text>
<text fill="black" font-size="4" font_family="sans" x="200" y="100">
500
</text>
<text fill="blue" font-size="2" font_family="sans" x="200" y="110">
500
</text>
<text fill="blue" font-size="2" font_family="sans" x="209" y="100">
500
</text>
<text fill="black" font-size="4" font_family="sans" x="219" y="100">
500
</text>
<text fill="blue" font-size="2" font_family="sans" x="219" y="110">
300
</text>
<text fill="black" font-size="4" font_family="sans" x="20" y="120">
100
</text>
<text fill="blue" font-size="2" font_family="sans" x="20" y="130">
300
</text>
<text fill="blue" font-size="2" font_family="sans" x="30" y="120">
300
</text>
<text fill="black" font-size="4" font_family="sans" x="40" y="120">
500
</text>
<text fill="blue" font-size="2" font_family="sans" x="40" y="130">
500
</text>
<text fill="blue" font-size="2" font_family="sans" x="50" y="120">
500
</text>
<text fill="black" font-size="4" font_family="sans" x="60" y="120">
500
</text>
<text fill="blue" font-size="2" font_family="sans" x="60" y="130">
275
</text>
<text fill="blue" font-size="2" font_family="sans" x="70" y="120">
275
</text>
<text fill="black" font-size="4" font_family="sans" x="80" y="120">
50
</text>
<text fill="blue" font-size="2" font_family="sans" x="80" y="130">
275
</text>
<text fill="blue" font-size="2" font_family="sans" x="90" y="120">
100
</text>
<text fill="black" font-size="4" font_family="sans" x="100" y="120">
150
</text>
<text fill="blue" font-size="2" font_family="sans" x="100" y="130">
325
</text>
<text fill="blue" font-size="2" font_family="sans" x="110" y="120">
325
</text>
<text fill="black" font-size="4" font_family="sans" x="120" y="120">
500
</text>
<text fill="blue" font-size="2" font_family="sans" x="120" y="130">
500
</text>
<text fill="blue" font-size="2" font_family="sans" x="130" y="120">
500
</text>
<text fill="black" font-size="4" font_family="sans" x="140" y="120">
500
</text>
<text fill="blue" font-size="2" font_family="sans" x="140" y="130">
275
</text>
<text fill="blue" font-size="2" font_family="sans" x="150" y="120">
375
</text>
<text fill="black" font-size="4" font_family="sans" x="160" y="120">
250
</text>
<text fill="blue" font-size="2" font_family="sans" x="160" y="130">
375
</text>
<text fill="blue" font-size="2" font_family="sans" x="170" y="120">
175
</text>
<text fill="black" font-size="4" font_family="sans" x="180" y="120">
100
</text>
<text fill="blue" font-size="2" font_family="sans" x="180" y="130">
300
</text>
<text fill="blue" font-size="2" font_family="sans" x="190" y="120">
300
</text>
<text fill="black" font-size="4" font_family="sans" x="200" y="120">
500
</text>
<text fill="blue" font-size="2" font_family="sans" x="200" y="130">
300
</text>
<text fill="blue" font-size="2" font_family="sans" x="209" y="120">
300
</text>
<text fill="black" font-size="4" font_family="sans" x="219" y="120">
100
</text>
<text fill="blue" font-size="2" font_family="sans" x="219" y="130">
300
</text>
<text fill="black" font-size="4" font_family="sans" x="20" y="140">
500
</text>
<text fill="blue" font-size="2" font_family="sans" x="20" y="150">
500
</text>
<text fill="blue" font-size="2" font_family="sans" x="30" y="140">
500
</text>
<text fill="black" font-size="4" font_family="sans" x="40" y="140">
500
</text>
<text fill="blue" font-size="2" font_family="sans" x="40" y="150">
500
</text>
<text fill="blue" font-size="2" font_family="sans" x="50" y="140">
275
</text>
<text fill="black" font-size="4" font_family="sans" x="60" y="140">
50
</text>
<text fill="blue" font-size="2" font_family="sans" x="60" y="150">
50
</text>
<text fill="blue" font-size="2" font_family="sans" x="70" y="140">
275
</text>
<text fill="black" font-size="4" font_family="sans" x="80" y="140">
500
</text>
<text fill="blue" font-size="2" font_family="sans" x="80" y="150">
375
</text>
<text fill="blue" font-size="2" font_family="sans" x="90" y="140">
500
</text>
<text fill="black" font-size="4" font_family="sans" x="100" y="140">
500
</text>
<text fill="blue" font-size="2" font_family="sans" x="100" y="150">
500
</text>
<text fill="blue" font-size="2" font_family="sans" x="110" y="140">
500
</text>
<text fill="black" font-size="4" font_family="sans" x="120" y="140">
500
</text>
<text fill="blue" font-size="2" font_family="sans" x="120" y="150">
500
</text>
<text fill="blue" font-size="2" font_family="sans" x="130" y="140">
275
</text>
<text fill="black" font-size="4" font_family="sans" x="140" y="140">
50
</text>
<text fill="blue" font-size="2" font_family="sans" x="140" y="150">
275
</text>
<text fill="blue" font-size="2" font_family="sans" x="150" y="140">
275
</text>
<text fill="black" font-size="4" font_family="sans" x="160" y="140">
500
</text>
<text fill="blue" font-size="2" font_family="sans" x="160" y="150">
500
</text>
<text fill="blue" font-size="2" font_family="sans" x="170" y="140">
500
</text>
<text fill="black" font-size="4" font_family="sans" x="180" y="140">
500
</text>
<text fill="blue" font-size="2" font_family="sans" x="180" y="150">
500
</text>
<text fill="blue" font-size="2" font_family="sans" x="190" y="140">
300
</text>
<text fill="black" font-size="4" font_family="sans" x="200" y="140">
100
</text>
<text fill="blue" font-size="2" font_family="sans" x="200" y="150">
175
</text>
<text fill="blue" font-size="2" font_family="sans" x="209" y="140">
300
</text>
<text fill="black" font-size="4" font_family="sans" x="219" y="140">
500
</text>
<text fill="blue" font-size="2" font_family="sans" x="219" y="150">
275
</text>
<text fill="black" font-size="4" font_family="sans" x="20" y="160">
500
</text>
<text fill="blue" font-size="2" font_family="sans" x="20" y="170">
500
</text>
<text fill="blue" font-size="2" font_family="sans" x="30" y="160">
500
</text>
<text fill="black" font-size="4" font_family="sans" x="40" y="160">
500
</text>
<text fill="blue" font-size="2" font_family="sans" x="40" y="170">
300
</text>
<text fill="blue" font-size="2" font_family="sans" x="50" y="160">
275
</text>
<text fill="black" font-size="4" font_family="sans" x="60" y="160">
50
</text>
<text fill="blue" font-size="2" font_family="sans" x="60" y="170">
100
</text>
<text fill="blue" font-size="2" font_family="sans" x="70" y="160">
150
</text>
<text fill="black" font-size="4" font_family="sans" x="80" y="160">
250
</text>
<text fill="blue" font-size="2" font_family="sans" x="80" y="170">
375
</text>
<text fill="blue" font-size="2" font_family="sans" x="90" y="160">
375
</text>
<text fill="black" font-size="4" font_family="sans" x="100" y="160">
500
</text>
<text fill="blue" font-size="2" font_family="sans" x="100" y="170">
275
</text>
<text fill="blue" font-size="2" font_family="sans" x="110" y="160">
500
</text>
<text fill="black" font-size="4" font_family="sans" x="120" y="160">
500
</text>
<text fill="blue" font-size="2" font_family="sans" x="120" y="170">
500
</text>
<text fill="blue" font-size="2" font_family="sans" x="130" y="160">
500
</text>
<text fill="black" font-size="4" font_family="sans" x="140" y="160">
500
</text>
<text fill="blue" font-size="2" font_family="sans" x="140" y="170">
500
</text>
<text fill="blue" font-size="2" font_family="sans" x="150" y="160">
500
</text>
<text fill="black" font-size="4" font_family="sans" x="160" y="160">
500
</text>
<text fill="blue" font-size="2" font_family="sans" x="160" y="170">
300
</text>
<text fill="blue" font-size="2" font_family="sans" x="170" y="160">
500
</text>
<text fill="black" font-size="4" font_family="sans" x="180" y="160">
500
</text>
<text fill="blue" font-size="2" font_family="sans" x="180" y="170">
500
</text>
<text fill="blue" font-size="2" font_family="sans" x="190" y="160">
375
</text>
<text fill="black" font-size="4" font_family="sans" x="200" y="160">
250
</text>
<text fill="blue" font-size="2" font_family="sans" x="200" y="170">
375
</text>
<text fill="blue" font-size="2" font_family="sans" x="209" y="160">
150
</text>
<text fill="black" font-size="4" font_family="sans" x="219" y="160">
50
</text>
<text fill="blue" font-size="2" font_family="sans" x="219" y="170">
125
</text>
<text fill="black" font-size="4" font_family="sans" x="20" y="180">
500
</text>
<text fill="blue" font-size="2" font_family="sans" x="20" y="190">
325
</text>
<text fill="blue" font-size="2" font_family="sans" x="30" y="180">
300
</text>
<text fill="black" font-size="4" font_family="sans" x="40" y="180">
100
</text>
<text fill="blue" font-size="2" font_family="sans" x="40" y="190">
300
</text>
<text fill="blue" font-size="2" font_family="sans" x="50" y="180">
125
</text>
<text fill="black" font-size="4" font_family="sans" x="60" y="180">
150
</text>
<text fill="blue" font-size="2" font_family="sans" x="60" y="190">
325
</text>
<text fill="blue" font-size="2" font_family="sans" x="70" y="180">
325
</text>
<text fill="black" font-size="4" font_family="sans" x="80" y="180">
500
</text>
<text fill="blue" font-size="2" font_family="sans" x="80" y="190">
500
</text>
<text fill="blue" font-size="2" font_family="sans" x="90" y="180">
275
</text>
<text fill="black" font-size="4" font_family="sans" x="100" y="180">
50
</text>
<text fill="blue" font-size="2" font_family="sans" x="100" y="190">
275
</text>
<text fill="blue" font-size="2" font_family="sans" x="110" y="180">
275
</text>
<text fill="black" font-size="4" font_family="sans" x="120" y="180">
500
</text>
<text fill="blue" font-size="2" font_family="sans" x="120" y="190">
500
</text>
<text fill="blue" font-size="2" font_family="sans" x="130" y="180">
500
</text>
<text fill="black" font-size="4" font_family="sans" x="140" y="180">
500
</text>
<text fill="blue" font-size="2" font_family="sans" x="140" y="190">
500
</text>
<text fill="blue" font-size="2" font_family="sans" x="150" y="180">
300
</text>
<text fill="black" font-size="4" font_family="sans" x="160" y="180">
100
</text>
<text fill="blue" font-size="2" font_family="sans" x="160" y="190">
100
</text>
<text fill="blue" font-size="2" font_family="sans" x="170" y="180">
300
</text>
<text fill="black" font-size="4" font_family="sans" x="180" y="180">
500
</text>
<text fill="blue" font-size="2" font_family="sans" x="180" y="190">
325
</text>
<text fill="blue" font-size="2" font_family="sans" x="190" y="180">
500
</text>
<text fill="black" font-size="4" font_family="sans" x="200" y="180">
500
</text>
<text fill="blue" font-size="2" font_family="sans" x="200" y="190">
300
</text>
<text fill="blue" font-size="2" font_family="sans" x="209" y="180">
350
</text>
<text fill="black" font-size="4" font_family="sans" x="219" y="180">
200
</text>
<text fill="blue" font-size="2" font_family="sans" x="219" y="190">
350
</text>
<text fill="black" font-size="4" font_family="sans" x="20" y="200">
150
</text>
<text fill="blue" font-size="2" font_family="sans" x="20" y="209">
325
</text>
<text fill="blue" font-size="2" font_family="sans" x="30" y="200">
325
</text>
<text fill="black" font-size="4" font_family="sans" x="40" y="200">
500
</text>
<text fill="blue" font-size="2" font_family="sans" x="40" y="209">
275
</text>
<text fill="blue" font-size="2" font_family="sans" x="50" y="200">
500
</text>
<text fill="black" font-size="4" font_family="sans" x="60" y="200">
500
</text>
<text fill="blue" font-size="2" font_family="sans" x="60" y="209">
500
</text>
<text fill="blue" font-size="2" font_family="sans" x="70" y="200">
500
</text>
<text fill="black" font-size="4" font_family="sans" x="80" y="200">
500
</text>
<text fill="blue" font-size="2" font_family="sans" x="80" y="209">
500
</text>
<text fill="blue" font-size="2" font_family="sans" x="90" y="200">
500
</text>
<text fill="black" font-size="4" font_family="sans" x="100" y="200">
500
</text>
<text fill="blue" font-size="2" font_family="sans" x="100" y="209">
500
</text>
<text fill="blue" font-size="2" font_family="sans" x="110" y="200">
500
</text>
<text fill="black" font-size="4" font_family="sans" x="120" y="200">
500
</text>
<text fill="blue" font-size="2" font_family="sans" x="120" y="209">
500
</text>
<text fill="blue" font-size="2" font_family="sans" x="130" y="200">
500
</text>
<text fill="black" font-size="4" font_family="sans" x="140" y="200">
500
</text>
<text fill="blue" font-size="2" font_family="sans" x="140" y="209">
500
</text>
<text fill="blue" font-size="2" font_family="sans" x="150" y="200">
300
</text>
<text fill="black" font-size="4" font_family="sans" x="160" y="200">
100
</text>
<text fill="blue" font-size="2" font_family="sans" x="160" y="209">
300
</text>
<text fill="blue" font-size="2" font_family="sans" x="170" y="200">
125
</text>
<text fill="black" font-size="4" font_family="sans" x="180" y="200">
150
</text>
<text fill="blue" font-size="2" font_family="sans" x="180" y="209">
175
</text>
<text fill="blue" font-size="2" font_family="sans" x="190" y="200">
125
</text>
<text fill="black" font-size="4" font_family="sans" x="200" y="200">
100
</text>
<text fill="blue" font-size="2" font_family="sans" x="200" y="209">
75
</text>
<text fill="blue" font-size="2" font_family="sans" x="209" y="200">
300
</text>
<text fill="black" font-size="4" font_family="sans" x="219" y="200">
500
</text>
<text fill="blue" font-size="2" font_family="sans" x="219" y="209">
500
</text>
<text fill="black" font-size="4" font_family="sans" x="20" y="219">
500
</text>
<text fill="blue" font-size="2" font_family="sans" x="30" y="219">
275
</text>
<text fill="black" font-size="4" font_family="sans" x="40" y="219">
50
</text>
<text fill="blue" font-size="2" font_family="sans" x="50" y="219">
275
</text>
<text fill="black" font-size="4" font_family="sans" x="60" y="219">
500
</text>
<text fill="blue" font-size="2" font_family="sans" x="70" y="219">
500
</text>
<text fill="black" font-size="4" font_family="sans" x="80" y="219">
500
</text>
<text fill="blue" font-size="2" font_family="sans" x="90" y="219">
500
</text>
<text fill="black" font-size="4" font_family="sans" x="100" y="219">
500
</text>
<text fill="blue" font-size="2" font_family="sans" x="110" y="219">
500
</text>
<text fill="black" font-size="4" font_family="sans" x="120" y="219">
500
</text>
<text fill="blue" font-size="2" font_family="sans" x="130" y="219">
500
</text>
<text fill="black" font-size="4" font_family="sans" x="140" y="219">
500
</text>
<text fill="blue" font-size="2" font_family="sans" x="150" y="219">
500
</text>
<text fill="black" font-size="4" font_family="sans" x="160" y="219">
500
</text>
<text fill="blue" font-size="2" font_family="sans" x="170" y="219">
350
</text>
<text fill="black" font-size="4" font_family="sans" x="180" y="219">
200
</text>
<text fill="blue" font-size="2" font_family="sans" x="190" y="219">
125
</text>
<text fill="black" font-size="4" font_family="sans" x="200" y="219">
50
</text>
<text fill="blue" font-size="2" font_family="sans" x="209" y="219">
275
</text>
<text fill="black" font-size="4" font_family="sans" x="219" y="219">
500
</text>
</svg>